<?xml version="1.0" standalone="no"?>
<!DOCTYPE svg PUBLIC "-//W3C//DTD SVG 20010904//EN"
 "http://www.w3.org/TR/2001/REC-SVG-20010904/DTD/svg10.dtd">
<svg version="1.0" xmlns="http://www.w3.org/2000/svg"
 width="256.000000pt" height="256.000000pt" viewBox="0 0 256.000000 256.000000"
 preserveAspectRatio="xMidYMid meet">
<metadata>
Created by potrace 1.11, written by Peter Selinger 2001-2013
</metadata>
<g transform="translate(0.000000,256.000000) scale(0.100000,-0.100000)"
fill="#000000" stroke="none">
<path d="M871 2532 c-35 -5 -70 -31 -85 -61 -7 -14 -32 -94 -56 -178 l-42
-152 -232 -3 -233 -3 -42 -28 c-29 -19 -49 -43 -63 -75 -20 -45 -21 -62 -21
-742 0 -755 -1 -729 54 -789 46 -49 72 -52 401 -53 290 0 309 -1 349 -21 33
-16 67 -55 171 -194 130 -174 161 -203 215 -203 49 0 82 32 211 205 101 136
136 174 169 191 41 21 57 22 348 22 168 1 316 4 328 8 38 11 87 54 107 95 20
38 20 55 18 752 l-3 714 -27 39 c-53 76 -64 79 -325 82 -207 3 -233 5 -237 20
-3 9 -19 67 -36 127 -53 188 -59 203 -93 227 -31 22 -33 23 -442 23 -225 0
-421 -2 -434 -3z m1362 -583 c14 -6 30 -22 36 -36 31 -67 -11 -133 -84 -133
-36 0 -75 39 -82 82 -5 32 -1 41 25 68 32 32 64 38 105 19z m-816 -54 c321
-76 526 -394 459 -714 -38 -179 -164 -342 -326 -419 -47 -22 -101 -43 -120
-46 -19 -3 -46 -8 -60 -11 -49 -11 -166 -5 -225 10 -279 72 -467 313 -466 600
1 151 63 297 176 411 93 94 207 156 315 171 19 3 37 7 39 9 10 10 152 2 208
-11z"/>
<path d="M1210 1738 c-121 -18 -258 -116 -313 -224 -149 -294 45 -637 367
-649 84 -3 132 7 213 45 178 82 278 286 238 482 -49 234 -265 381 -505 346z
m357 -227 c27 -19 47 -73 39 -105 -17 -67 -79 -102 -141 -80 -51 17 -74 49
-75 99 0 94 100 142 177 86z"/>
</g>
</svg>
